<?xml version="1.0" encoding="UTF-8" standalone="no"?>
<!DOCTYPE svg PUBLIC "-//W3C//DTD SVG 1.1//EN"
 "http://www.w3.org/Graphics/SVG/1.1/DTD/svg11.dtd">
<!-- Generated by graphviz version 2.40.1 (20161225.0304)
 -->
<!-- Title: dependencies Pages: 1 -->
<svg width="948pt" height="284pt"
 viewBox="0.00 0.00 948.00 284.00" xmlns="http://www.w3.org/2000/svg" xmlns:xlink="http://www.w3.org/1999/xlink">
<g id="graph0" class="graph" transform="scale(1 1) rotate(0) translate(4 280)">
<title>dependencies</title>
<polygon fill="#ffffff" stroke="transparent" points="-4,4 -4,-280 944,-280 944,4 -4,4"/>
<text text-anchor="start" x="449.0091" y="-42.4" font-family="sans-serif" font-weight="bold" font-size="14.00" fill="#000000">Legend</text>
<polygon fill="#ffffb3" stroke="transparent" points="236,-10 236,-30 256,-30 256,-10 236,-10"/>
<text text-anchor="start" x="259.629" y="-15.4" font-family="sans-serif" font-size="14.00" fill="#000000"> &#160;Declarations</text>
<polygon fill="#8dd3c7" stroke="transparent" points="349,-10 349,-30 369,-30 369,-10 349,-10"/>
<text text-anchor="start" x="372.7251" y="-15.4" font-family="sans-serif" font-size="14.00" fill="#000000"> &#160;Module</text>
<polygon fill="#80b1d3" stroke="transparent" points="435,-10 435,-30 455,-30 455,-10 435,-10"/>
<text text-anchor="start" x="458.7812" y="-15.4" font-family="sans-serif" font-size="14.00" fill="#000000"> &#160;Bootstrap</text>
<polygon fill="#fdb462" stroke="transparent" points="532,-10 532,-30 552,-30 552,-10 532,-10"/>
<text text-anchor="start" x="555.6732" y="-15.4" font-family="sans-serif" font-size="14.00" fill="#000000"> &#160;Providers</text>
<polygon fill="#fb8072" stroke="transparent" points="628,-10 628,-30 648,-30 648,-10 628,-10"/>
<text text-anchor="start" x="651.7258" y="-15.4" font-family="sans-serif" font-size="14.00" fill="#000000"> &#160;Exports</text>
<g id="clust1" class="cluster">
<title>cluster_NgxGraphsModule</title>
<polygon fill="none" stroke="#000000" stroke-dasharray="1,5" points="8,-70 8,-268 932,-268 932,-70 8,-70"/>
</g>
<g id="clust2" class="cluster">
<title>cluster_NgxGraphsModule_declarations</title>
<polygon fill="none" stroke="#000000" points="24,-78 24,-130 914,-130 914,-78 24,-78"/>
</g>
<g id="clust9" class="cluster">
<title>cluster_NgxGraphsModule_exports</title>
<polygon fill="none" stroke="#000000" points="16,-208 16,-260 924,-260 924,-208 16,-208"/>
</g>
<!-- ChartGridlinesComponent -->
<g id="node1" class="node">
<title>ChartGridlinesComponent</title>
<polygon fill="#ffffb3" stroke="#000000" points="906.0337,-122 741.9663,-122 741.9663,-86 906.0337,-86 906.0337,-122"/>
<text text-anchor="middle" x="824" y="-99.8" font-family="Times,serif" font-size="14.00" fill="#000000">ChartGridlinesComponent</text>
</g>
<!-- NgxGraphsModule -->
<g id="node6" class="node">
<title>NgxGraphsModule</title>
<polygon fill="#8dd3c7" stroke="#000000" points="532.0828,-187 529.0828,-191 508.0828,-191 505.0828,-187 407.9172,-187 407.9172,-151 532.0828,-151 532.0828,-187"/>
<text text-anchor="middle" x="470" y="-164.8" font-family="Times,serif" font-size="14.00" fill="#000000">NgxGraphsModule</text>
</g>
<!-- ChartGridlinesComponent&#45;&gt;NgxGraphsModule -->
<g id="edge1" class="edge">
<title>ChartGridlinesComponent&#45;&gt;NgxGraphsModule</title>
<path fill="none" stroke="#000000" d="M853.5055,-122.2667C853.5055,-140.5552 853.5055,-166 853.5055,-166 853.5055,-166 542.043,-166 542.043,-166"/>
<polygon fill="#000000" stroke="#000000" points="542.0431,-162.5001 532.043,-166 542.043,-169.5001 542.0431,-162.5001"/>
</g>
<!-- ChartLegendComponent -->
<g id="node2" class="node">
<title>ChartLegendComponent</title>
<polygon fill="#ffffb3" stroke="#000000" points="724.4172,-122 569.5828,-122 569.5828,-86 724.4172,-86 724.4172,-122"/>
<text text-anchor="middle" x="647" y="-99.8" font-family="Times,serif" font-size="14.00" fill="#000000">ChartLegendComponent</text>
</g>
<!-- ChartLegendComponent&#45;&gt;NgxGraphsModule -->
<g id="edge2" class="edge">
<title>ChartLegendComponent&#45;&gt;NgxGraphsModule</title>
<path fill="none" stroke="#000000" d="M673.4861,-122.0091C673.4861,-138.0494 673.4861,-159 673.4861,-159 673.4861,-159 542.1582,-159 542.1582,-159"/>
<polygon fill="#000000" stroke="#000000" points="542.1583,-155.5001 532.1582,-159 542.1582,-162.5001 542.1583,-155.5001"/>
</g>
<!-- StepAreaChartComponent -->
<g id="node3" class="node">
<title>StepAreaChartComponent</title>
<polygon fill="#ffffb3" stroke="#000000" points="552.0197,-122 387.9803,-122 387.9803,-86 552.0197,-86 552.0197,-122"/>
<text text-anchor="middle" x="470" y="-99.8" font-family="Times,serif" font-size="14.00" fill="#000000">StepAreaChartComponent</text>
</g>
<!-- StepAreaChartComponent&#45;&gt;NgxGraphsModule -->
<g id="edge3" class="edge">
<title>StepAreaChartComponent&#45;&gt;NgxGraphsModule</title>
<path fill="none" stroke="#000000" d="M470,-122.1061C470,-122.1061 470,-140.991 470,-140.991"/>
<polygon fill="#000000" stroke="#000000" points="466.5001,-140.9909 470,-150.991 473.5001,-140.991 466.5001,-140.9909"/>
</g>
<!-- StackedBarChartComponent -->
<g id="node4" class="node">
<title>StackedBarChartComponent</title>
<polygon fill="#ffffb3" stroke="#000000" points="369.4636,-122 192.5364,-122 192.5364,-86 369.4636,-86 369.4636,-122"/>
<text text-anchor="middle" x="281" y="-99.8" font-family="Times,serif" font-size="14.00" fill="#000000">StackedBarChartComponent</text>
</g>
<!-- StackedBarChartComponent&#45;&gt;NgxGraphsModule -->
<g id="edge4" class="edge">
<title>StackedBarChartComponent&#45;&gt;NgxGraphsModule</title>
<path fill="none" stroke="#000000" d="M309.6606,-122.0091C309.6606,-138.0494 309.6606,-159 309.6606,-159 309.6606,-159 397.5495,-159 397.5495,-159"/>
<polygon fill="#000000" stroke="#000000" points="397.5495,-162.5001 407.5495,-159 397.5494,-155.5001 397.5495,-162.5001"/>
</g>
<!-- GraphAxisComponent -->
<g id="node5" class="node">
<title>GraphAxisComponent</title>
<polygon fill="#ffffb3" stroke="#000000" points="174.2562,-122 31.7438,-122 31.7438,-86 174.2562,-86 174.2562,-122"/>
<text text-anchor="middle" x="103" y="-99.8" font-family="Times,serif" font-size="14.00" fill="#000000">GraphAxisComponent</text>
</g>
<!-- GraphAxisComponent&#45;&gt;NgxGraphsModule -->
<g id="edge5" class="edge">
<title>GraphAxisComponent&#45;&gt;NgxGraphsModule</title>
<path fill="none" stroke="#000000" d="M123.9593,-122.2667C123.9593,-140.5552 123.9593,-166 123.9593,-166 123.9593,-166 397.7352,-166 397.7352,-166"/>
<polygon fill="#000000" stroke="#000000" points="397.7352,-169.5001 407.7352,-166 397.7352,-162.5001 397.7352,-169.5001"/>
</g>
<!-- ChartGridlinesComponent  -->
<g id="node7" class="node">
<title>ChartGridlinesComponent </title>
<polygon fill="#fb8072" stroke="#000000" points="916.033,-252 747.967,-252 747.967,-216 916.033,-216 916.033,-252"/>
<text text-anchor="middle" x="832" y="-229.8" font-family="Times,serif" font-size="14.00" fill="#000000">ChartGridlinesComponent </text>
</g>
<!-- NgxGraphsModule&#45;&gt;ChartGridlinesComponent  -->
<g id="edge6" class="edge">
<title>NgxGraphsModule&#45;&gt;ChartGridlinesComponent </title>
<path fill="none" stroke="#000000" stroke-dasharray="5,2" d="M532.2105,-173C628.0191,-173 800.7445,-173 800.7445,-173 800.7445,-173 800.7445,-205.698 800.7445,-205.698"/>
<polygon fill="#000000" stroke="#000000" points="797.2446,-205.698 800.7445,-215.698 804.2446,-205.698 797.2446,-205.698"/>
</g>
<!-- ChartLegendComponent  -->
<g id="node8" class="node">
<title>ChartLegendComponent </title>
<polygon fill="#fb8072" stroke="#000000" points="729.9166,-252 572.0834,-252 572.0834,-216 729.9166,-216 729.9166,-252"/>
<text text-anchor="middle" x="651" y="-229.8" font-family="Times,serif" font-size="14.00" fill="#000000">ChartLegendComponent </text>
</g>
<!-- NgxGraphsModule&#45;&gt;ChartLegendComponent  -->
<g id="edge7" class="edge">
<title>NgxGraphsModule&#45;&gt;ChartLegendComponent </title>
<path fill="none" stroke="#000000" stroke-dasharray="5,2" d="M532.1349,-180C574.4284,-180 622.7639,-180 622.7639,-180 622.7639,-180 622.7639,-205.7181 622.7639,-205.7181"/>
<polygon fill="#000000" stroke="#000000" points="619.264,-205.718 622.7639,-215.7181 626.264,-205.7181 619.264,-205.718"/>
</g>
<!-- StepAreaChartComponent  -->
<g id="node9" class="node">
<title>StepAreaChartComponent </title>
<polygon fill="#fb8072" stroke="#000000" points="554.019,-252 385.981,-252 385.981,-216 554.019,-216 554.019,-252"/>
<text text-anchor="middle" x="470" y="-229.8" font-family="Times,serif" font-size="14.00" fill="#000000">StepAreaChartComponent </text>
</g>
<!-- NgxGraphsModule&#45;&gt;StepAreaChartComponent  -->
<g id="edge8" class="edge">
<title>NgxGraphsModule&#45;&gt;StepAreaChartComponent </title>
<path fill="none" stroke="#000000" stroke-dasharray="5,2" d="M470,-187.1061C470,-187.1061 470,-205.991 470,-205.991"/>
<polygon fill="#000000" stroke="#000000" points="466.5001,-205.9909 470,-215.991 473.5001,-205.991 466.5001,-205.9909"/>
</g>
<!-- StackedBarChartComponent  -->
<g id="node10" class="node">
<title>StackedBarChartComponent </title>
<polygon fill="#fb8072" stroke="#000000" points="368.4642,-252 187.5358,-252 187.5358,-216 368.4642,-216 368.4642,-252"/>
<text text-anchor="middle" x="278" y="-229.8" font-family="Times,serif" font-size="14.00" fill="#000000">StackedBarChartComponent </text>
</g>
<!-- NgxGraphsModule&#45;&gt;StackedBarChartComponent  -->
<g id="edge9" class="edge">
<title>NgxGraphsModule&#45;&gt;StackedBarChartComponent </title>
<path fill="none" stroke="#000000" stroke-dasharray="5,2" d="M407.8546,-180C343.135,-180 251.0894,-180 251.0894,-180 251.0894,-180 251.0894,-205.7181 251.0894,-205.7181"/>
<polygon fill="#000000" stroke="#000000" points="247.5895,-205.718 251.0894,-215.7181 254.5895,-205.7181 247.5895,-205.718"/>
</g>
<!-- GraphAxisComponent  -->
<g id="node11" class="node">
<title>GraphAxisComponent </title>
<polygon fill="#fb8072" stroke="#000000" points="170.2562,-252 23.7438,-252 23.7438,-216 170.2562,-216 170.2562,-252"/>
<text text-anchor="middle" x="97" y="-229.8" font-family="Times,serif" font-size="14.00" fill="#000000">GraphAxisComponent </text>
</g>
<!-- NgxGraphsModule&#45;&gt;GraphAxisComponent  -->
<g id="edge10" class="edge">
<title>NgxGraphsModule&#45;&gt;GraphAxisComponent </title>
<path fill="none" stroke="#000000" stroke-dasharray="5,2" d="M407.8533,-173C297.2609,-173 77.7907,-173 77.7907,-173 77.7907,-173 77.7907,-205.698 77.7907,-205.698"/>
<polygon fill="#000000" stroke="#000000" points="74.2906,-205.698 77.7907,-215.698 81.2906,-205.698 74.2906,-205.698"/>
</g>
</g>
</svg>
